<svg width="370" height="286" viewBox="0 0 370 286" fill="none" xmlns="http://www.w3.org/2000/svg">
<rect x="8.5" y="8.5" width="353" height="269" rx="15.5" fill="url(#paint0_linear_3173_18)" stroke="#025255" stroke-width="17"/>
<path d="M140.446 152.759C140.446 163.973 132.014 173.064 121.612 173.064C111.211 173.064 102.779 163.973 102.779 152.759C102.779 141.545 111.211 132.454 121.612 132.454C132.014 132.454 140.446 141.545 140.446 152.759Z" fill="#035355"/>
<path d="M266.13 152.759C266.13 163.733 257.887 172.564 247.796 172.564C237.706 172.564 229.463 163.733 229.463 152.759C229.463 141.785 237.706 132.954 247.796 132.954C257.887 132.954 266.13 141.785 266.13 152.759Z" fill="#035355" stroke="#035354"/>
<path d="M214.526 120.473C214.526 137.616 201.645 151.447 185.834 151.447C170.023 151.447 157.142 137.616 157.142 120.473C157.142 103.331 170.023 89.5 185.834 89.5C201.645 89.5 214.526 103.331 214.526 120.473Z" fill="#035355" stroke="#035354"/>
<path d="M126.957 222H92.2462C91.1825 222 90.3036 221.156 90.2528 220.093C88.9001 191.817 91.7977 179.362 128.747 179.123C130.512 179.112 131.663 181.489 131 183.125C128.873 188.382 128.953 195.287 128.957 195.592C128.957 195.604 128.957 195.608 128.957 195.619V195.622V220C128.957 221.104 128.062 222 126.957 222Z" fill="#035355"/>
<path d="M229.411 222H139.997C138.893 222 137.997 221.104 137.997 220V197.475C137.997 177.04 154.563 160.475 174.997 160.475H184.704H194.411C214.846 160.475 231.411 177.04 231.411 197.475V220C231.411 221.104 230.516 222 229.411 222Z" fill="#035355"/>
<path d="M277.507 222H242.639C241.535 222 240.639 221.104 240.639 220V195.603C240.25 189.065 239.621 185.514 238.228 182.073C237.672 180.699 238.611 179.126 240.094 179.127C273.208 179.153 280.3 189.583 279.497 220.056C279.469 221.132 278.584 222 277.507 222Z" fill="#035355"/>
<path d="M126.957 222H92.2462C91.1825 222 90.3036 221.156 90.2528 220.093C88.9001 191.817 91.7977 179.362 128.747 179.123C130.512 179.112 131.663 181.489 131 183.125C128.873 188.382 128.953 195.287 128.957 195.592C128.957 195.604 128.957 195.608 128.957 195.619V195.622V220C128.957 221.104 128.062 222 126.957 222Z" stroke="#035354"/>
<path d="M229.411 222H139.997C138.893 222 137.997 221.104 137.997 220V197.475C137.997 177.04 154.563 160.475 174.997 160.475H184.704H194.411C214.846 160.475 231.411 177.04 231.411 197.475V220C231.411 221.104 230.516 222 229.411 222Z" stroke="#035354"/>
<path d="M277.507 222H242.639C241.535 222 240.639 221.104 240.639 220V195.603C240.25 189.065 239.621 185.514 238.228 182.073C237.672 180.699 238.611 179.126 240.094 179.127C273.208 179.153 280.3 189.583 279.497 220.056C279.469 221.132 278.584 222 277.507 222Z" stroke="#035354"/>
<defs>
<linearGradient id="paint0_linear_3173_18" x1="205.5" y1="286" x2="125" y2="76" gradientUnits="userSpaceOnUse">
<stop stop-color="#1EB4A4"/>
<stop offset="1" stop-color="#0A7979"/>
</linearGradient>
</defs>
</svg>
