<svg width="370" height="286" viewBox="0 0 370 286" fill="none" xmlns="http://www.w3.org/2000/svg">
<rect x="8.5" y="8.5" width="353" height="269" rx="15.5" fill="url(#paint0_linear_3173_18)" stroke="#025255" stroke-width="17"/>
<path d="M140.446 140.759C140.446 151.973 132.014 161.064 121.612 161.064C111.211 161.064 102.779 151.973 102.779 140.759C102.779 129.545 111.211 120.454 121.612 120.454C132.014 120.454 140.446 129.545 140.446 140.759Z" fill="#035355"/>
<path d="M266.13 140.759C266.13 151.733 257.887 160.564 247.796 160.564C237.706 160.564 229.463 151.733 229.463 140.759C229.463 129.785 237.706 120.954 247.796 120.954C257.887 120.954 266.13 129.785 266.13 140.759Z" fill="#035355" stroke="#035354"/>
<path d="M214.526 108.473C214.526 125.616 201.645 139.447 185.834 139.447C170.023 139.447 157.142 125.616 157.142 108.473C157.142 91.3311 170.023 77.5 185.834 77.5C201.645 77.5 214.526 91.3311 214.526 108.473Z" fill="#035355" stroke="#035354"/>
<path d="M126.957 210H92.2462C91.1825 210 90.3036 209.156 90.2528 208.093C88.9001 179.817 91.7977 167.362 128.747 167.123C130.512 167.112 131.663 169.489 131 171.125C128.873 176.382 128.953 183.287 128.957 183.592C128.957 183.604 128.957 183.608 128.957 183.619V183.622V208C128.957 209.104 128.062 210 126.957 210Z" fill="#035355"/>
<path d="M229.411 210H139.997C138.893 210 137.997 209.104 137.997 208V185.475C137.997 165.04 154.563 148.475 174.997 148.475H184.704H194.411C214.846 148.475 231.411 165.04 231.411 185.475V208C231.411 209.104 230.516 210 229.411 210Z" fill="#035355"/>
<path d="M277.507 210H242.639C241.535 210 240.639 209.104 240.639 208V183.603C240.25 177.065 239.621 173.514 238.228 170.073C237.672 168.699 238.611 167.126 240.094 167.127C273.208 167.153 280.3 177.583 279.497 208.056C279.469 209.132 278.584 210 277.507 210Z" fill="#035355"/>
<path d="M126.957 210H92.2462C91.1825 210 90.3036 209.156 90.2528 208.093C88.9001 179.817 91.7977 167.362 128.747 167.123C130.512 167.112 131.663 169.489 131 171.125C128.873 176.382 128.953 183.287 128.957 183.592C128.957 183.604 128.957 183.608 128.957 183.619V183.622V208C128.957 209.104 128.062 210 126.957 210Z" stroke="#035354"/>
<path d="M229.411 210H139.997C138.893 210 137.997 209.104 137.997 208V185.475C137.997 165.04 154.563 148.475 174.997 148.475H184.704H194.411C214.846 148.475 231.411 165.04 231.411 185.475V208C231.411 209.104 230.516 210 229.411 210Z" stroke="#035354"/>
<path d="M277.507 210H242.639C241.535 210 240.639 209.104 240.639 208V183.603C240.25 177.065 239.621 173.514 238.228 170.073C237.672 168.699 238.611 167.126 240.094 167.127C273.208 167.153 280.3 177.583 279.497 208.056C279.469 209.132 278.584 210 277.507 210Z" stroke="#035354"/>
<defs>
<linearGradient id="paint0_linear_3173_18" x1="205.5" y1="286" x2="125" y2="76" gradientUnits="userSpaceOnUse">
<stop stop-color="#1EB4A4"/>
<stop offset="1" stop-color="#0A7979"/>
</linearGradient>
</defs>
</svg>
