<svg width="1114" height="1008" viewBox="0 0 1114 1008" fill="none" xmlns="http://www.w3.org/2000/svg">
<g filter="url(#filter0_f_315_487)">
<circle cx="557" cy="557" r="307" fill="white" fill-opacity="0.3"/>
</g>
<path d="M556.5 562L527.5 545V511.5L556.5 495.5L586 511.5V545L556.5 562Z" fill="url(#paint0_linear_315_487)"/>
<path d="M556.5 581.5L527.5 566.5L529.5 699L556.5 716.5L586 696V563.5L556.5 581.5Z" fill="url(#paint1_linear_315_487)"/>
<path d="M529.5 753.5L556.5 735.5L587.5 753.5L586 782.5L556.5 799.5L529.5 782.5V753.5Z" fill="url(#paint2_linear_315_487)"/>
<path d="M718 639L575 725.5L604.5 744.5V777.5L740.5 699L718 678.5V639Z" fill="url(#paint3_linear_315_487)"/>
<path d="M755.5 689L732.5 670.5V636L761 621L786 636L784 670.5L755.5 689Z" fill="url(#paint4_linear_315_487)"/>
<path d="M784 436.5L788 621L761 605.5L730 621L732.5 471L784 436.5Z" fill="url(#paint5_linear_315_487)"/>
<path d="M784 422L732.5 455V422L700 411.5L755 378.5L784 392.5V422Z" fill="url(#paint6_linear_315_487)"/>
<path d="M718 464.5L602 535V506L568.5 487.5L683 419L718 431V464.5Z" fill="url(#paint7_linear_315_487)"/>
<path d="M742.5 368L691.5 399L572.5 326L627 296.5L742.5 368Z" fill="url(#paint8_linear_315_487)"/>
<path d="M619 288L556.5 320.5L500.5 285L556.5 250L619 288Z" fill="url(#paint9_linear_315_487)"/>
<path d="M398 637L536 725L512.5 739V774.5L388 689L384.5 654L398 637Z" fill="url(#paint10_linear_315_487)"/>
<path d="M369 647.5L372 682.5L331.5 660.5V597L384.5 628L369 647.5Z" fill="url(#paint11_linear_315_487)"/>
<path d="M379 605.5L330 581.5L325 441L373.5 471L379 605.5Z" fill="url(#paint12_linear_315_487)"/>
<path d="M376 422.5V457.5L330 425.5V392.5L373.5 368L416.5 399L376 422.5Z" fill="url(#paint13_linear_315_487)"/>
<path d="M543.5 326L430 397.5L382.5 361L490.5 296.5L543.5 326Z" fill="url(#paint14_linear_315_487)"/>
<path d="M393.5 433L424.5 411.5L543.5 487.5L510.5 503.5V535L393.5 463.5V433Z" fill="url(#paint15_linear_315_487)"/>
<path d="M556.5 562L527.5 545V511.5L556.5 495.5L586 511.5V545L556.5 562Z" stroke="#FF8B00" stroke-width="2"/>
<path d="M556.5 581.5L527.5 566.5L529.5 699L556.5 716.5L586 696V563.5L556.5 581.5Z" stroke="#FF8B00" stroke-width="2"/>
<path d="M529.5 753.5L556.5 735.5L587.5 753.5L586 782.5L556.5 799.5L529.5 782.5V753.5Z" stroke="#FF8B00" stroke-width="2"/>
<path d="M718 639L575 725.5L604.5 744.5V777.5L740.5 699L718 678.5V639Z" stroke="#FF8B00" stroke-width="2"/>
<path d="M755.5 689L732.5 670.5V636L761 621L786 636L784 670.5L755.5 689Z" stroke="#FF8B00" stroke-width="2"/>
<path d="M784 436.5L788 621L761 605.5L730 621L732.5 471L784 436.5Z" stroke="#FF8B00" stroke-width="2"/>
<path d="M784 422L732.5 455V422L700 411.5L755 378.5L784 392.5V422Z" stroke="#FF8B00" stroke-width="2"/>
<path d="M718 464.5L602 535V506L568.5 487.5L683 419L718 431V464.5Z" stroke="#FF8B00" stroke-width="2"/>
<path d="M742.5 368L691.5 399L572.5 326L627 296.5L742.5 368Z" stroke="#FF8B00" stroke-width="2"/>
<path d="M619 288L556.5 320.5L500.5 285L556.5 250L619 288Z" stroke="#FF8B00" stroke-width="2"/>
<path d="M398 637L536 725L512.5 739V774.5L388 689L384.5 654L398 637Z" stroke="#FF8B00" stroke-width="2"/>
<path d="M369 647.5L372 682.5L331.5 660.5V597L384.5 628L369 647.5Z" stroke="#FF8B00" stroke-width="2"/>
<path d="M379 605.5L330 581.5L325 441L373.5 471L379 605.5Z" stroke="#FF8B00" stroke-width="2"/>
<path d="M376 422.5V457.5L330 425.5V392.5L373.5 368L416.5 399L376 422.5Z" stroke="#FF8B00" stroke-width="2"/>
<path d="M543.5 326L430 397.5L382.5 361L490.5 296.5L543.5 326Z" stroke="#FF8B00" stroke-width="2"/>
<path d="M393.5 433L424.5 411.5L543.5 487.5L510.5 503.5V535L393.5 463.5V433Z" stroke="#FF8B00" stroke-width="2"/>
<defs>
<filter id="filter0_f_315_487" x="0" y="0" width="1114" height="1114" filterUnits="userSpaceOnUse" color-interpolation-filters="sRGB">
<feFlood flood-opacity="0" result="BackgroundImageFix"/>
<feBlend mode="normal" in="SourceGraphic" in2="BackgroundImageFix" result="shape"/>
<feGaussianBlur stdDeviation="125" result="effect1_foregroundBlur_315_487"/>
</filter>
<linearGradient id="paint0_linear_315_487" x1="554.5" y1="250" x2="554.5" y2="799.5" gradientUnits="userSpaceOnUse">
<stop stop-color="#812323"/>
<stop offset="1" stop-color="#FF8B00"/>
</linearGradient>
<linearGradient id="paint1_linear_315_487" x1="554.5" y1="250" x2="554.5" y2="799.5" gradientUnits="userSpaceOnUse">
<stop stop-color="#812323"/>
<stop offset="1" stop-color="#FF8B00"/>
</linearGradient>
<linearGradient id="paint2_linear_315_487" x1="554.5" y1="250" x2="554.5" y2="799.5" gradientUnits="userSpaceOnUse">
<stop stop-color="#812323"/>
<stop offset="1" stop-color="#FF8B00"/>
</linearGradient>
<linearGradient id="paint3_linear_315_487" x1="554.5" y1="250" x2="554.5" y2="799.5" gradientUnits="userSpaceOnUse">
<stop stop-color="#812323"/>
<stop offset="1" stop-color="#FF8B00"/>
</linearGradient>
<linearGradient id="paint4_linear_315_487" x1="554.5" y1="250" x2="554.5" y2="799.5" gradientUnits="userSpaceOnUse">
<stop stop-color="#812323"/>
<stop offset="1" stop-color="#FF8B00"/>
</linearGradient>
<linearGradient id="paint5_linear_315_487" x1="554.5" y1="250" x2="554.5" y2="799.5" gradientUnits="userSpaceOnUse">
<stop stop-color="#812323"/>
<stop offset="1" stop-color="#FF8B00"/>
</linearGradient>
<linearGradient id="paint6_linear_315_487" x1="554.5" y1="250" x2="554.5" y2="799.5" gradientUnits="userSpaceOnUse">
<stop stop-color="#812323"/>
<stop offset="1" stop-color="#FF8B00"/>
</linearGradient>
<linearGradient id="paint7_linear_315_487" x1="554.5" y1="250" x2="554.5" y2="799.5" gradientUnits="userSpaceOnUse">
<stop stop-color="#812323"/>
<stop offset="1" stop-color="#FF8B00"/>
</linearGradient>
<linearGradient id="paint8_linear_315_487" x1="554.5" y1="250" x2="554.5" y2="799.5" gradientUnits="userSpaceOnUse">
<stop stop-color="#812323"/>
<stop offset="1" stop-color="#FF8B00"/>
</linearGradient>
<linearGradient id="paint9_linear_315_487" x1="554.5" y1="250" x2="554.5" y2="799.5" gradientUnits="userSpaceOnUse">
<stop stop-color="#812323"/>
<stop offset="1" stop-color="#FF8B00"/>
</linearGradient>
<linearGradient id="paint10_linear_315_487" x1="554.5" y1="250" x2="554.5" y2="799.5" gradientUnits="userSpaceOnUse">
<stop stop-color="#812323"/>
<stop offset="1" stop-color="#FF8B00"/>
</linearGradient>
<linearGradient id="paint11_linear_315_487" x1="554.5" y1="250" x2="554.5" y2="799.5" gradientUnits="userSpaceOnUse">
<stop stop-color="#812323"/>
<stop offset="1" stop-color="#FF8B00"/>
</linearGradient>
<linearGradient id="paint12_linear_315_487" x1="554.5" y1="250" x2="554.5" y2="799.5" gradientUnits="userSpaceOnUse">
<stop stop-color="#812323"/>
<stop offset="1" stop-color="#FF8B00"/>
</linearGradient>
<linearGradient id="paint13_linear_315_487" x1="554.5" y1="250" x2="554.5" y2="799.5" gradientUnits="userSpaceOnUse">
<stop stop-color="#812323"/>
<stop offset="1" stop-color="#FF8B00"/>
</linearGradient>
<linearGradient id="paint14_linear_315_487" x1="554.5" y1="250" x2="554.5" y2="799.5" gradientUnits="userSpaceOnUse">
<stop stop-color="#812323"/>
<stop offset="1" stop-color="#FF8B00"/>
</linearGradient>
<linearGradient id="paint15_linear_315_487" x1="554.5" y1="250" x2="554.5" y2="799.5" gradientUnits="userSpaceOnUse">
<stop stop-color="#812323"/>
<stop offset="1" stop-color="#FF8B00"/>
</linearGradient>
</defs>
</svg>
